<svg xmlns="http://www.w3.org/2000/svg" width="600" height="600" viewBox="0 0 600 600">
<rect width="600" height="600" fill="white"/>
<rect x="0" y="0" width="100" height="100" fill="black"/>
<rect x="100" y="0" width="100" height="100" fill="black"/>
<rect x="200" y="0" width="100" height="100" fill="black"/>
<rect x="300" y="0" width="100" height="100" fill="black"/>
<rect x="400" y="0" width="100" height="100" fill="black"/>
<rect x="500" y="0" width="100" height="100" fill="black"/>
<rect x="0" y="100" width="100" height="100" fill="black"/>
<rect x="100" y="100" width="100" height="100" fill="black"/>
<rect x="500" y="100" width="100" height="100" fill="black"/>
<rect x="0" y="200" width="100" height="100" fill="black"/>
<rect x="200" y="200" width="100" height="100" fill="black"/>
<rect x="300" y="200" width="100" height="100" fill="black"/>
<rect x="500" y="200" width="100" height="100" fill="black"/>
<rect x="0" y="300" width="100" height="100" fill="black"/>
<rect x="300" y="300" width="100" height="100" fill="black"/>
<rect x="400" y="300" width="100" height="100" fill="black"/>
<rect x="500" y="300" width="100" height="100" fill="black"/>
<rect x="0" y="400" width="100" height="100" fill="black"/>
<rect x="300" y="400" width="100" height="100" fill="black"/>
<rect x="500" y="400" width="100" height="100" fill="black"/>
<rect x="0" y="500" width="100" height="100" fill="black"/>
<rect x="100" y="500" width="100" height="100" fill="black"/>
<rect x="200" y="500" width="100" height="100" fill="black"/>
<rect x="300" y="500" width="100" height="100" fill="black"/>
<rect x="400" y="500" width="100" height="100" fill="black"/>
<rect x="500" y="500" width="100" height="100" fill="black"/>
</svg>